Rokkitt-Medium.ufo
<glyph name="numbersign" format="1">
  <advance width="1090"/>
  <unicode hex="0023"/>
  <outline>
    <contour>
      <point x="189" y="-6" type="line"/>
      <point x="296" y="-6" type="line"/>
      <point x="342" y="359" type="line"/>
      <point x="676" y="359" type="line"/>
      <point x="631" y="-6" type="line"/>
      <point x="738" y="-6" type="line"/>
      <point x="784" y="359" type="line"/>
      <point x="1001" y="359" type="line"/>
      <point x="1001" y="448" type="line"/>
      <point x="799" y="448" type="line"/>
      <point x="837" y="769" type="line"/>
      <point x="1024" y="769" type="line"/>
      <point x="1025" y="859" type="line"/>
      <point x="851" y="859" type="line"/>
      <point x="895" y="1199" type="line"/>
      <point x="787" y="1199" type="line"/>
      <point x="744" y="859" type="line"/>
      <point x="410" y="859" type="line"/>
      <point x="454" y="1199" type="line"/>
      <point x="346" y="1199" type="line"/>
      <point x="302" y="859" type="line"/>
      <point x="94" y="859" type="line"/>
      <point x="93" y="769" type="line"/>
      <point x="287" y="769" type="line"/>
      <point x="250" y="448" type="line"/>
      <point x="70" y="448" type="line"/>
      <point x="68" y="359" type="line"/>
      <point x="234" y="359" type="line"/>
    </contour>
    <contour>
      <point x="356" y="448" type="line"/>
      <point x="395" y="769" type="line"/>
      <point x="729" y="769" type="line"/>
      <point x="691" y="448" type="line"/>
    </contour>
  </outline>
</glyph>
<glyph name="percent" format="1">
  <advance width="1741"/>
  <unicode hex="0025"/>
  <outline>
    <contour>
      <point x="422" y="694" type="curve" smooth="yes"/>
      <point x="322" y="695"/>
      <point x="246" y="774"/>
      <point x="246" y="880" type="curve" smooth="yes"/>
      <point x="246" y="985"/>
      <point x="322" y="1063"/>
      <point x="422" y="1064" type="curve" smooth="yes"/>
      <point x="524" y="1063"/>
      <point x="600" y="985"/>
      <point x="600" y="880" type="curve" smooth="yes"/>
      <point x="600" y="774"/>
      <point x="524" y="695"/>
    </contour>
    <contour>
      <point x="422" y="579" type="curve" smooth="yes"/>
      <point x="601" y="579"/>
      <point x="735" y="708"/>
      <point x="735" y="880" type="curve" smooth="yes"/>
      <point x="735" y="1050"/>
      <point x="601" y="1177"/>
      <point x="422" y="1177" type="curve" smooth="yes"/>
      <point x="244" y="1177"/>
      <point x="111" y="1050"/>
      <point x="111" y="880" type="curve" smooth="yes"/>
      <point x="111" y="708"/>
      <point x="244" y="579"/>
    </contour>
    <contour>
      <point x="406" y="-66" type="line"/>
      <point x="1435" y="1165" type="line"/>
      <point x="1345" y="1242" type="line"/>
      <point x="312" y="17" type="line"/>
    </contour>
    <contour>
      <point x="1331" y="93" type="curve" smooth="yes"/>
      <point x="1231" y="94"/>
      <point x="1155" y="173"/>
      <point x="1155" y="279" type="curve" smooth="yes"/>
      <point x="1155" y="384"/>
      <point x="1231" y="462"/>
      <point x="1331" y="463" type="curve" smooth="yes"/>
      <point x="1433" y="462"/>
      <point x="1509" y="384"/>
      <point x="1509" y="279" type="curve" smooth="yes"/>
      <point x="1509" y="173"/>
      <point x="1433" y="94"/>
    </contour>
    <contour>
      <point x="1331" y="-22" type="curve" smooth="yes"/>
      <point x="1510" y="-22"/>
      <point x="1644" y="107"/>
      <point x="1644" y="279" type="curve" smooth="yes"/>
      <point x="1644" y="449"/>
      <point x="1510" y="576"/>
      <point x="1331" y="576" type="curve" smooth="yes"/>
      <point x="1153" y="576"/>
      <point x="1020" y="449"/>
      <point x="1020" y="279" type="curve" smooth="yes"/>
      <point x="1020" y="107"/>
      <point x="1153" y="-22"/>
    </contour>
  </outline>
</glyph>
<glyph name="ampersand" format="1">
  <advance width="1242"/>
  <unicode hex="0026"/>
  <outline>
    <contour>
      <point x="502" y="-20" type="curve" smooth="yes"/>
      <point x="641" y="-20"/>
      <point x="761" y="28"/>
      <point x="852" y="117" type="curve"/>
      <point x="941" y="0" type="line"/>
      <point x="1183" y="0" type="line"/>
      <point x="1183" y="98" type="line"/>
      <point x="1013" y="98" type="line"/>
      <point x="930" y="203" type="line"/>
      <point x="981" y="270"/>
      <point x="1026" y="381"/>
      <point x="1047" y="463" type="curve"/>
      <point x="1183" y="464" type="line"/>
      <point x="1183" y="561" type="line"/>
      <point x="963" y="561" type="line"/>
      <point x="950" y="477"/>
      <point x="913" y="357"/>
      <point x="863" y="288" type="curve"/>
      <point x="566" y="647" type="line"/>
      <point x="745" y="723"/>
      <point x="839" y="835"/>
      <point x="839" y="972" type="curve" smooth="yes"/>
      <point x="839" y="1111"/>
      <point x="726" y="1206"/>
      <point x="556" y="1206" type="curve" smooth="yes"/>
      <point x="379" y="1206"/>
      <point x="261" y="1110"/>
      <point x="261" y="965" type="curve" smooth="yes"/>
      <point x="261" y="874"/>
      <point x="313" y="784"/>
      <point x="397" y="679" type="curve"/>
      <point x="207" y="611"/>
      <point x="105" y="496"/>
      <point x="105" y="330" type="curve" smooth="yes"/>
      <point x="105" y="119"/>
      <point x="263" y="-20"/>
    </contour>
    <contour>
      <point x="521" y="87" type="curve" smooth="yes"/>
      <point x="347" y="87"/>
      <point x="236" y="189"/>
      <point x="236" y="337" type="curve" smooth="yes"/>
      <point x="236" y="462"/>
      <point x="310" y="552"/>
      <point x="459" y="602" type="curve"/>
      <point x="787" y="198" type="line"/>
      <point x="718" y="124"/>
      <point x="625" y="87"/>
    </contour>
    <contour>
      <point x="508" y="725" type="curve"/>
      <point x="432" y="822"/>
      <point x="378" y="897"/>
      <point x="378" y="969" type="curve" smooth="yes"/>
      <point x="378" y="1059"/>
      <point x="449" y="1112"/>
      <point x="555" y="1112" type="curve" smooth="yes"/>
      <point x="660" y="1112"/>
      <point x="727" y="1058"/>
      <point x="727" y="967" type="curve" smooth="yes"/>
      <point x="727" y="864"/>
      <point x="647" y="783"/>
    </contour>
  </outline>
</glyph>
<glyph name="quotesingle" format="1">
  <advance width="479"/>
  <unicode hex="0027"/>
  <outline>
    <contour>
      <point x="180" y="757" type="line"/>
      <point x="302" y="757" type="line"/>
      <point x="347" y="1222" type="line"/>
      <point x="131" y="1222" type="line"/>
    </contour>
  </outline>
</glyph>
<glyph name="parenright" format="1">
  <advance width="554"/>
  <unicode hex="0029"/>
  <outline>
    <contour>
      <point x="108" y="-120" type="line"/>
      <point x="376" y="-17"/>
      <point x="510" y="254"/>
      <point x="510" y="526" type="curve" smooth="yes"/>
      <point x="510" y="797"/>
      <point x="375" y="1070"/>
      <point x="108" y="1173" type="curve"/>
      <point x="107" y="1091" type="line"/>
      <point x="271" y="1011"/>
      <point x="355" y="769"/>
      <point x="355" y="528" type="curve" smooth="yes"/>
      <point x="355" y="286"/>
      <point x="271" y="45"/>
      <point x="107" y="-35" type="curve"/>
    </contour>
  </outline>
</glyph>
<glyph name="plus" format="1">
  <advance width="883"/>
  <unicode hex="002B"/>
  <outline>
    <contour>
      <point x="395" y="123" type="line"/>
      <point x="500" y="123" type="line"/>
      <point x="500" y="527" type="line"/>
      <point x="853" y="527" type="line"/>
      <point x="853" y="628" type="line"/>
      <point x="500" y="628" type="line"/>
      <point x="500" y="1024" type="line"/>
      <point x="395" y="1024" type="line"/>
      <point x="395" y="628" type="line"/>
      <point x="40" y="628" type="line"/>
      <point x="40" y="527" type="line"/>
      <point x="395" y="527" type="line"/>
    </contour>
  </outline>
</glyph>
<glyph name="hyphen" format="1">
  <advance width="751"/>
  <unicode hex="002D"/>
  <outline>
    <contour>
      <point x="355" y="436" type="move" name="_mid"/>
    </contour>
    <contour>
      <point x="127" y="392" type="line"/>
      <point x="623" y="392" type="line"/>
      <point x="623" y="491" type="line"/>
      <point x="127" y="491" type="line"/>
    </contour>
  </outline>
</glyph>
<glyph name="one" format="1">
  <advance width="650"/>
  <unicode hex="0031"/>
  <outline>
    <contour>
      <point x="124" y="0" type="line"/>
      <point x="584" y="0" type="line"/>
      <point x="584" y="94" type="line"/>
      <point x="422" y="94" type="line"/>
      <point x="422" y="1153" type="line"/>
      <point x="120" y="1097" type="line"/>
      <point x="126" y="1004" type="line"/>
      <point x="293" y="1036" type="line"/>
      <point x="293" y="94" type="line"/>
      <point x="124" y="94" type="line"/>
    </contour>
  </outline>
</glyph>
<glyph name="three" format="1">
  <advance width="1022"/>
  <unicode hex="0033"/>
  <outline>
    <contour>
      <point x="498" y="-21" type="curve" smooth="yes"/>
      <point x="757" y="-21"/>
      <point x="912" y="114"/>
      <point x="912" y="337" type="curve" smooth="yes"/>
      <point x="912" y="488"/>
      <point x="811" y="578"/>
      <point x="642" y="608" type="curve"/>
      <point x="792" y="637"/>
      <point x="881" y="732"/>
      <point x="881" y="871" type="curve" smooth="yes"/>
      <point x="881" y="1056"/>
      <point x="730" y="1174"/>
      <point x="485" y="1174" type="curve" smooth="yes"/>
      <point x="296" y="1174"/>
      <point x="151" y="1086"/>
      <point x="88" y="940" type="curve"/>
      <point x="191" y="891" type="line"/>
      <point x="235" y="1005"/>
      <point x="340" y="1072"/>
      <point x="483" y="1072" type="curve" smooth="yes"/>
      <point x="650" y="1072"/>
      <point x="753" y="993"/>
      <point x="753" y="870" type="curve" smooth="yes"/>
      <point x="753" y="732"/>
      <point x="655" y="654"/>
      <point x="414" y="654" type="curve"/>
      <point x="414" y="553" type="line"/>
      <point x="660" y="553"/>
      <point x="775" y="483"/>
      <point x="779" y="335" type="curve" smooth="yes"/>
      <point x="783" y="176"/>
      <point x="676" y="82"/>
      <point x="499" y="82" type="curve" smooth="yes"/>
      <point x="356" y="82"/>
      <point x="251" y="150"/>
      <point x="196" y="273" type="curve"/>
      <point x="94" y="215" type="line"/>
      <point x="148" y="69"/>
      <point x="300" y="-21"/>
    </contour>
  </outline>
</glyph>
<glyph name="question" format="1">
  <advance width="851"/>
  <unicode hex="003F"/>
  <outline>
    <contour>
      <point x="317" y="340" type="curve"/>
      <point x="456" y="340" type="line"/>
      <point x="477" y="719"/>
      <point x="794" y="601"/>
      <point x="794" y="914" type="curve" smooth="yes"/>
      <point x="794" y="1108"/>
      <point x="635" y="1233"/>
      <point x="434" y="1233" type="curve" smooth="yes"/>
      <point x="244" y="1233"/>
      <point x="61" y="1144"/>
      <point x="61" y="889" type="curve"/>
      <point x="234" y="889" type="line"/>
      <point x="234" y="1022"/>
      <point x="301" y="1098"/>
      <point x="436" y="1098" type="curve" smooth="yes"/>
      <point x="535" y="1098"/>
      <point x="615" y="1025"/>
      <point x="615" y="914" type="curve" smooth="yes"/>
      <point x="615" y="693"/>
      <point x="317" y="800"/>
    </contour>
    <contour>
      <point x="390" y="-12" type="curve" smooth="yes"/>
      <point x="468" y="-12"/>
      <point x="529" y="45"/>
      <point x="529" y="119" type="curve" smooth="yes"/>
      <point x="529" y="191"/>
      <point x="468" y="249"/>
      <point x="390" y="249" type="curve" smooth="yes"/>
      <point x="314" y="249"/>
      <point x="253" y="191"/>
      <point x="253" y="119" type="curve" smooth="yes"/>
      <point x="253" y="45"/>
      <point x="314" y="-12"/>
    </contour>
  </outline>
</glyph>
<glyph name="I" format="1">
  <advance width="723"/>
  <unicode hex="0049"/>
  <outline>
    <contour>
      <point x="362" y="1152" type="move" name="top"/>
    </contour>
    <contour>
      <point x="98" y="0" type="line"/>
      <point x="625" y="0" type="line"/>
      <point x="625" y="140" type="line"/>
      <point x="471" y="140" type="line"/>
      <point x="471" y="1012" type="line"/>
      <point x="625" y="1012" type="line"/>
      <point x="625" y="1152" type="line"/>
      <point x="98" y="1152" type="line"/>
      <point x="98" y="1012" type="line"/>
      <point x="252" y="1012" type="line"/>
      <point x="252" y="140" type="line"/>
      <point x="98" y="140" type="line"/>
    </contour>
  </outline>
</glyph>
<glyph name="O" format="1">
  <advance width="1453"/>
  <unicode hex="004F"/>
  <outline>
    <contour>
      <point x="724" y="1152" type="move" name="top"/>
    </contour>
    <contour>
      <point x="790" y="0" type="move" name="ogonek"/>
    </contour>
    <contour>
      <point x="725" y="83" type="curve" smooth="yes"/>
      <point x="427" y="83"/>
      <point x="258" y="313"/>
      <point x="258" y="572" type="curve" smooth="yes"/>
      <point x="258" y="829"/>
      <point x="428" y="1070"/>
      <point x="726" y="1070" type="curve" smooth="yes"/>
      <point x="1021" y="1070"/>
      <point x="1194" y="829"/>
      <point x="1194" y="573" type="curve" smooth="yes"/>
      <point x="1194" y="318"/>
      <point x="1020" y="83"/>
    </contour>
    <contour>
      <point x="726" y="-22" type="curve" smooth="yes"/>
      <point x="1113" y="-22"/>
      <point x="1346" y="258"/>
      <point x="1346" y="573" type="curve" smooth="yes"/>
      <point x="1346" y="887"/>
      <point x="1112" y="1174"/>
      <point x="725" y="1174" type="curve" smooth="yes"/>
      <point x="340" y="1174"/>
      <point x="107" y="888"/>
      <point x="107" y="573" type="curve" smooth="yes"/>
      <point x="107" y="259"/>
      <point x="339" y="-22"/>
    </contour>
  </outline>
</glyph>
<glyph name="Q" format="1">
  <advance width="1450"/>
  <unicode hex="0051"/>
  <outline>
    <contour>
      <point x="1212" y="-293" type="curve"/>
      <point x="1211" y="-147" type="line"/>
      <point x="1169" y="-157"/>
      <point x="1130" y="-161"/>
      <point x="1096" y="-161" type="curve" smooth="yes"/>
      <point x="964" y="-161"/>
      <point x="887" y="-95"/>
      <point x="835" y="-14" type="curve"/>
      <point x="1141" y="32"/>
      <point x="1360" y="269"/>
      <point x="1360" y="573" type="curve" smooth="yes"/>
      <point x="1360" y="916"/>
      <point x="1087" y="1174"/>
      <point x="723" y="1174" type="curve" smooth="yes"/>
      <point x="361" y="1174"/>
      <point x="90" y="917"/>
      <point x="90" y="574" type="curve" smooth="yes"/>
      <point x="90" y="257"/>
      <point x="325" y="15"/>
      <point x="648" y="-18" type="curve"/>
      <point x="742" y="-198"/>
      <point x="904" y="-306"/>
      <point x="1096" y="-306" type="curve" smooth="yes"/>
      <point x="1134" y="-306"/>
      <point x="1172" y="-302"/>
    </contour>
    <contour>
      <point x="723" y="138" type="curve" smooth="yes"/>
      <point x="487" y="138"/>
      <point x="327" y="314"/>
      <point x="327" y="572" type="curve" smooth="yes"/>
      <point x="327" y="836"/>
      <point x="487" y="1016"/>
      <point x="724" y="1016" type="curve" smooth="yes"/>
      <point x="961" y="1016"/>
      <point x="1121" y="836"/>
      <point x="1121" y="573" type="curve" smooth="yes"/>
      <point x="1121" y="314"/>
      <point x="960" y="138"/>
    </contour>
  </outline>
</glyph>
<glyph name="T" format="1">
  <advance width="1144"/>
  <unicode hex="0054"/>
  <outline>
    <contour>
      <point x="569" y="1152" type="move" name="top"/>
    </contour>
    <contour>
      <point x="573" y="0" type="move" name="bot"/>
    </contour>
    <contour>
      <point x="570" y="618" type="move" name="mid"/>
    </contour>
    <contour>
      <point x="52" y="757" type="line"/>
      <point x="159" y="757" type="line"/>
      <point x="159" y="1059" type="line"/>
      <point x="984" y="1059" type="line"/>
      <point x="984" y="757" type="line"/>
      <point x="1093" y="757" type="line"/>
      <point x="1093" y="1152" type="line"/>
      <point x="52" y="1152" type="line"/>
    </contour>
    <component base="uc_main_stem" xOffset="216"/>
  </outline>
</glyph>
<glyph name="W" format="1">
  <advance width="1904"/>
  <unicode hex="0057"/>
  <outline>
    <contour>
      <point x="965" y="1152" type="move" name="top"/>
    </contour>
    <contour>
      <point x="534" y="0" type="line"/>
      <point x="659" y="0" type="line"/>
      <point x="955" y="898" type="line"/>
      <point x="1251" y="0" type="line"/>
      <point x="1377" y="0" type="line"/>
      <point x="1706" y="1059" type="line"/>
      <point x="1850" y="1059" type="line"/>
      <point x="1850" y="1152" type="line"/>
      <point x="1436" y="1152" type="line"/>
      <point x="1436" y="1059" type="line"/>
      <point x="1586" y="1059" type="line"/>
      <point x="1321" y="182" type="line"/>
      <point x="1014" y="1123" type="line"/>
      <point x="911" y="1123" type="line"/>
      <point x="605" y="182" type="line"/>
      <point x="333" y="1059" type="line"/>
      <point x="485" y="1059" type="line"/>
      <point x="485" y="1152" type="line"/>
      <point x="54" y="1152" type="line"/>
      <point x="54" y="1059" type="line"/>
      <point x="196" y="1059" type="line"/>
    </contour>
  </outline>
</glyph>
<glyph name="Y" format="1">
  <advance width="1287"/>
  <unicode hex="0059"/>
  <outline>
    <contour>
      <point x="654" y="1152" type="move" name="top"/>
    </contour>
    <contour>
      <point x="407" y="0" type="line"/>
      <point x="886" y="0" type="line"/>
      <point x="886" y="94" type="line"/>
      <point x="716" y="94" type="line"/>
      <point x="716" y="488" type="line"/>
      <point x="1103" y="1059" type="line"/>
      <point x="1259" y="1059" type="line"/>
      <point x="1259" y="1152" type="line"/>
      <point x="823" y="1152" type="line"/>
      <point x="823" y="1059" type="line"/>
      <point x="973" y="1059" type="line"/>
      <point x="657" y="582" type="line"/>
      <point x="333" y="1059" type="line"/>
      <point x="480" y="1059" type="line"/>
      <point x="480" y="1152" type="line"/>
      <point x="25" y="1152" type="line"/>
      <point x="25" y="1059" type="line"/>
      <point x="180" y="1059" type="line"/>
      <point x="575" y="487" type="line"/>
      <point x="575" y="94" type="line"/>
      <point x="407" y="94" type="line"/>
    </contour>
  </outline>
</glyph>
<glyph name="grave" format="1">
  <advance width="407"/>
  <unicode hex="0060"/>
  <outline>
    <contour>
      <point x="254" y="804" type="move" name="_top"/>
    </contour>
    <contour>
      <point x="190" y="969" type="line"/>
      <point x="319" y="969" type="line"/>
      <point x="200" y="1290" type="line"/>
      <point x="-27" y="1290" type="line"/>
    </contour>
  </outline>
</glyph>
<glyph name="b" format="1">
  <advance width="1082"/>
  <unicode hex="0062"/>
  <outline>
    <contour>
      <point x="661" y="804" type="move" name="top"/>
    </contour>
    <contour>
      <point x="46" y="0" type="line"/>
      <point x="395" y="0" type="line"/>
      <point x="395" y="53" type="line"/>
      <point x="457" y="3"/>
      <point x="530" y="-21"/>
      <point x="625" y="-21" type="curve" smooth="yes"/>
      <point x="829" y="-21"/>
      <point x="1036" y="133"/>
      <point x="1036" y="415" type="curve" smooth="yes"/>
      <point x="1036" y="685"/>
      <point x="854" y="825"/>
      <point x="654" y="825" type="curve" smooth="yes"/>
      <point x="566" y="825"/>
      <point x="475" y="798"/>
      <point x="395" y="744" type="curve"/>
      <point x="395" y="1174" type="line"/>
      <point x="48" y="1174" type="line"/>
      <point x="48" y="1034" type="line"/>
      <point x="197" y="1034" type="line"/>
      <point x="197" y="140" type="line"/>
      <point x="46" y="140" type="line"/>
    </contour>
    <contour>
      <point x="395" y="191" type="curve"/>
      <point x="395" y="597" type="line"/>
      <point x="460" y="649"/>
      <point x="530" y="674"/>
      <point x="595" y="674" type="curve" smooth="yes"/>
      <point x="723" y="674"/>
      <point x="829" y="579"/>
      <point x="829" y="402" type="curve" smooth="yes"/>
      <point x="829" y="215"/>
      <point x="716" y="126"/>
      <point x="587" y="126" type="curve" smooth="yes"/>
      <point x="524" y="126"/>
      <point x="455" y="148"/>
    </contour>
  </outline>
</glyph>
<glyph name="c" format="1">
  <advance width="961"/>
  <unicode hex="0063"/>
  <outline>
    <contour>
      <point x="508" y="804" type="move" name="top"/>
    </contour>
    <contour>
      <point x="513" y="0" type="move" name="bot"/>
    </contour>
    <contour>
      <point x="256" y="414" type="curve" smooth="yes"/>
      <point x="256" y="564"/>
      <point x="363" y="671"/>
      <point x="518" y="671" type="curve" smooth="yes"/>
      <point x="640" y="671"/>
      <point x="723" y="608"/>
      <point x="749" y="495" type="curve"/>
      <point x="896" y="495" type="line"/>
      <point x="896" y="809" type="line"/>
      <point x="733" y="809" type="line"/>
      <point x="734" y="719" type="line"/>
      <point x="706" y="778"/>
      <point x="598" y="826"/>
      <point x="494" y="826" type="curve" smooth="yes"/>
      <point x="234" y="826"/>
      <point x="50" y="653"/>
      <point x="50" y="409" type="curve" smooth="yes"/>
      <point x="50" y="158"/>
      <point x="236" y="-19"/>
      <point x="498" y="-19" type="curve" smooth="yes"/>
      <point x="682" y="-19"/>
      <point x="818" y="63"/>
      <point x="892" y="170" type="curve"/>
      <point x="800" y="284" type="line"/>
      <point x="739" y="207"/>
      <point x="664" y="137"/>
      <point x="519" y="137" type="curve" smooth="yes"/>
      <point x="363" y="137"/>
      <point x="256" y="251"/>
    </contour>
  </outline>
</glyph>
<glyph name="f" format="1">
  <advance width="713"/>
  <unicode hex="0066"/>
  <outline>
    <contour>
      <point x="393" y="1152" type="move" name="top"/>
    </contour>
    <contour>
      <point x="71" y="0" type="line"/>
      <point x="645" y="0" type="line"/>
      <point x="645" y="141" type="line"/>
      <point x="432" y="141" type="line"/>
      <point x="432" y="664" type="line"/>
      <point x="629" y="664" type="line"/>
      <point x="629" y="804" type="line"/>
      <point x="432" y="804" type="line"/>
      <point x="432" y="948" type="line" smooth="yes"/>
      <point x="432" y="1054"/>
      <point x="463" y="1096"/>
      <point x="521" y="1096" type="curve" smooth="yes"/>
      <point x="586" y="1096"/>
      <point x="602" y="1047"/>
      <point x="613" y="979" type="curve"/>
      <point x="766" y="1019" type="line"/>
      <point x="756" y="1187"/>
      <point x="632" y="1233"/>
      <point x="514" y="1233" type="curve" smooth="yes"/>
      <point x="318" y="1233"/>
      <point x="234" y="1119"/>
      <point x="234" y="951" type="curve" smooth="yes"/>
      <point x="234" y="804" type="line"/>
      <point x="77" y="804" type="line"/>
      <point x="77" y="664" type="line"/>
      <point x="234" y="664" type="line"/>
      <point x="234" y="141" type="line"/>
      <point x="71" y="141" type="line"/>
    </contour>
  </outline>
</glyph>
<glyph name="j" format="1">
  <advance width="557"/>
  <unicode hex="006A"/>
  <outline>
    <contour>
      <point x="293" y="966" type="curve" smooth="yes"/>
      <point x="371" y="966"/>
      <point x="432" y="1023"/>
      <point x="432" y="1097" type="curve" smooth="yes"/>
      <point x="432" y="1169"/>
      <point x="371" y="1227"/>
      <point x="293" y="1227" type="curve" smooth="yes"/>
      <point x="217" y="1227"/>
      <point x="156" y="1169"/>
      <point x="156" y="1097" type="curve" smooth="yes"/>
      <point x="156" y="1023"/>
      <point x="217" y="966"/>
    </contour>
    <contour>
      <point x="4" y="-342" type="line"/>
      <point x="100" y="-342" type="line" smooth="yes"/>
      <point x="404" y="-342"/>
      <point x="431" y="-184"/>
      <point x="431" y="47" type="curve" smooth="yes"/>
      <point x="431" y="47"/>
      <point x="431" y="804"/>
      <point x="431" y="804" type="curve"/>
      <point x="66" y="804" type="line"/>
      <point x="66" y="664" type="line"/>
      <point x="233" y="664" type="line"/>
      <point x="233" y="-13" type="line" smooth="yes"/>
      <point x="233" y="-134"/>
      <point x="204" y="-186"/>
      <point x="100" y="-186" type="curve" smooth="yes"/>
      <point x="4" y="-186" type="line"/>
    </contour>
  </outline>
</glyph>
<glyph name="k" format="1">
  <advance width="1041"/>
  <unicode hex="006B"/>
  <outline>
    <contour>
      <point x="761" y="944" type="move" name="top"/>
    </contour>
    <contour>
      <point x="554" y="0" type="move" name="bot"/>
    </contour>
    <contour>
      <point x="764" y="0" type="line"/>
      <point x="1015" y="0" type="line"/>
      <point x="1015" y="141" type="line"/>
      <point x="865" y="141" type="line"/>
      <point x="595" y="420" type="line"/>
      <point x="901" y="664" type="line"/>
      <point x="1010" y="664" type="line"/>
      <point x="1010" y="804" type="line"/>
      <point x="558" y="804" type="line"/>
      <point x="558" y="664" type="line"/>
      <point x="700" y="664" type="line"/>
      <point x="399" y="434" type="line"/>
      <point x="399" y="1174" type="line"/>
      <point x="52" y="1174" type="line"/>
      <point x="52" y="1034" type="line"/>
      <point x="201" y="1034" type="line"/>
      <point x="201" y="140" type="line"/>
      <point x="50" y="140" type="line"/>
      <point x="50" y="0" type="line"/>
      <point x="522" y="0" type="line"/>
      <point x="522" y="140" type="line"/>
      <point x="399" y="140" type="line"/>
      <point x="399" y="384" type="line"/>
    </contour>
  </outline>
</glyph>
<glyph name="n" format="1">
  <advance width="1079"/>
  <unicode hex="006E"/>
  <outline>
    <contour>
      <point x="588" y="804" type="move" name="top"/>
    </contour>
    <contour>
      <point x="582" y="0" type="move" name="bot"/>
    </contour>
    <contour>
      <point x="50" y="0" type="line"/>
      <point x="521" y="0" type="line"/>
      <point x="521" y="140" type="line"/>
      <point x="391" y="140" type="line"/>
      <point x="391" y="599" type="line"/>
      <point x="454" y="640"/>
      <point x="529" y="671"/>
      <point x="603" y="671" type="curve" smooth="yes"/>
      <point x="685" y="671"/>
      <point x="734" y="609"/>
      <point x="734" y="495" type="curve" smooth="yes"/>
      <point x="734" y="140" type="line"/>
      <point x="620" y="140" type="line"/>
      <point x="620" y="0" type="line"/>
      <point x="1075" y="0" type="line"/>
      <point x="1075" y="140" type="line"/>
      <point x="930" y="140" type="line"/>
      <point x="930" y="546" type="line" smooth="yes"/>
      <point x="930" y="730"/>
      <point x="801" y="826"/>
      <point x="657" y="826" type="curve" smooth="yes"/>
      <point x="561" y="826"/>
      <point x="472" y="786"/>
      <point x="391" y="729" type="curve"/>
      <point x="391" y="804" type="line"/>
      <point x="50" y="804" type="line"/>
      <point x="50" y="664" type="line"/>
      <point x="195" y="664" type="line"/>
      <point x="195" y="140" type="line"/>
      <point x="50" y="140" type="line"/>
    </contour>
  </outline>
</glyph>
<glyph name="o" format="1">
  <advance width="978"/>
  <unicode hex="006F"/>
  <outline>
    <contour>
      <point x="486" y="804" type="move" name="top"/>
    </contour>
    <contour>
      <point x="521" y="0" type="move" name="ogonek"/>
    </contour>
    <contour>
      <point x="488" y="80" type="curve" smooth="yes"/>
      <point x="311" y="80"/>
      <point x="187" y="215"/>
      <point x="187" y="405" type="curve" smooth="yes"/>
      <point x="187" y="592"/>
      <point x="311" y="724"/>
      <point x="487" y="724" type="curve" smooth="yes"/>
      <point x="665" y="724"/>
      <point x="790" y="592"/>
      <point x="790" y="406" type="curve" smooth="yes"/>
      <point x="790" y="215"/>
      <point x="665" y="80"/>
    </contour>
    <contour>
      <point x="487" y="-22" type="curve" smooth="yes"/>
      <point x="743" y="-22"/>
      <point x="925" y="155"/>
      <point x="925" y="406" type="curve" smooth="yes"/>
      <point x="925" y="652"/>
      <point x="744" y="826"/>
      <point x="488" y="826" type="curve" smooth="yes"/>
      <point x="233" y="826"/>
      <point x="53" y="651"/>
      <point x="53" y="405" type="curve" smooth="yes"/>
      <point x="53" y="154"/>
      <point x="233" y="-22"/>
    </contour>
  </outline>
</glyph>
<glyph name="p" format="1">
  <advance width="1052"/>
  <unicode hex="0070"/>
  <outline>
    <contour>
      <point x="571" y="804" type="move" name="top"/>
    </contour>
    <contour>
      <point x="591" y="-21" type="curve" smooth="yes"/>
      <point x="795" y="-21"/>
      <point x="1002" y="133"/>
      <point x="1002" y="415" type="curve" smooth="yes"/>
      <point x="1002" y="685"/>
      <point x="820" y="825"/>
      <point x="620" y="825" type="curve" smooth="yes"/>
      <point x="523" y="825"/>
      <point x="432" y="793"/>
      <point x="362" y="739" type="curve"/>
      <point x="359" y="804" type="line"/>
      <point x="28" y="804" type="line"/>
      <point x="28" y="664" type="line"/>
      <point x="175" y="664" type="line"/>
      <point x="175" y="-180" type="line"/>
      <point x="28" y="-180" type="line"/>
      <point x="28" y="-320" type="line"/>
      <point x="539" y="-320" type="line"/>
      <point x="539" y="-180" type="line"/>
      <point x="371" y="-180" type="line"/>
      <point x="371" y="46" type="line"/>
      <point x="415" y="10"/>
      <point x="496" y="-21"/>
    </contour>
    <contour>
      <point x="370" y="605" type="line"/>
      <point x="432" y="658"/>
      <point x="517" y="674"/>
      <point x="561" y="674" type="curve" smooth="yes"/>
      <point x="689" y="674"/>
      <point x="795" y="579"/>
      <point x="795" y="402" type="curve" smooth="yes"/>
      <point x="795" y="215"/>
      <point x="682" y="126"/>
      <point x="553" y="126" type="curve" smooth="yes"/>
      <point x="493" y="126"/>
      <point x="429" y="146"/>
      <point x="371" y="184" type="curve"/>
    </contour>
  </outline>
</glyph>
<glyph name="q" format="1">
  <advance width="1079"/>
  <unicode hex="0071"/>
  <outline>
    <contour>
      <point x="604" y="-330" type="line"/>
      <point x="1029" y="-330" type="line"/>
      <point x="1029" y="-232" type="line"/>
      <point x="886" y="-232" type="line"/>
      <point x="886" y="711" type="line"/>
      <point x="1025" y="711" type="line"/>
      <point x="1025" y="804" type="line"/>
      <point x="760" y="804" type="line"/>
      <point x="756" y="694" type="line"/>
      <point x="756" y="-232" type="line"/>
      <point x="604" y="-232" type="line"/>
    </contour>
    <component base="lc_bowl_left" xOffset="-90"/>
  </outline>
</glyph>
<glyph name="r" format="1">
  <advance width="786"/>
  <unicode hex="0072"/>
  <outline>
    <contour>
      <point x="471" y="804" type="move" name="top"/>
    </contour>
    <contour>
      <point x="309" y="0" type="move" name="bot"/>
    </contour>
    <contour>
      <point x="372" y="440" type="line"/>
      <point x="372" y="608"/>
      <point x="462" y="705"/>
      <point x="567" y="705" type="curve" smooth="yes"/>
      <point x="617" y="705"/>
      <point x="660" y="690"/>
      <point x="706" y="661" type="curve"/>
      <point x="737" y="776" type="line"/>
      <point x="684" y="802"/>
      <point x="632" y="818"/>
      <point x="577" y="818" type="curve" smooth="yes"/>
      <point x="474" y="818"/>
      <point x="379" y="749"/>
      <point x="338" y="543" type="curve"/>
    </contour>
    <component base="lc_xheight_stem" xOffset="-35"/>
  </outline>
</glyph>
<glyph name="t" format="1">
  <advance width="608"/>
  <unicode hex="0074"/>
  <outline>
    <contour>
      <point x="247" y="1052" type="move" name="top"/>
    </contour>
    <contour>
      <point x="391" y="4" type="move" name="bot"/>
    </contour>
    <contour>
      <point x="263" y="482" type="move" name="mid"/>
    </contour>
    <contour>
      <point x="416" y="0" type="curve" smooth="yes"/>
      <point x="551" y="0" type="line"/>
      <point x="551" y="93" type="line"/>
      <point x="438" y="93" type="line" smooth="yes"/>
      <point x="344" y="93"/>
      <point x="308" y="133"/>
      <point x="308" y="241" type="curve" smooth="yes"/>
      <point x="308" y="711" type="line"/>
      <point x="527" y="711" type="line"/>
      <point x="527" y="804" type="line"/>
      <point x="308" y="804" type="line"/>
      <point x="308" y="1130" type="line"/>
      <point x="179" y="1080" type="line"/>
      <point x="179" y="804" type="line"/>
      <point x="41" y="804" type="line"/>
      <point x="41" y="711" type="line"/>
      <point x="178" y="711" type="line"/>
      <point x="178" y="234" type="line" smooth="yes"/>
      <point x="178" y="70"/>
      <point x="264" y="0"/>
    </contour>
  </outline>
</glyph>
<glyph name="v" format="1">
  <advance width="1052"/>
  <unicode hex="0076"/>
  <outline>
    <contour>
      <point x="439" y="0" type="line"/>
      <point x="610" y="0" type="line"/>
      <point x="916" y="664" type="line"/>
      <point x="1040" y="664" type="line"/>
      <point x="1040" y="804" type="line"/>
      <point x="616" y="804" type="line"/>
      <point x="616" y="664" type="line"/>
      <point x="727" y="664" type="line"/>
      <point x="541" y="209" type="line"/>
      <point x="357" y="664" type="line"/>
      <point x="469" y="664" type="line"/>
      <point x="469" y="804" type="line"/>
      <point x="12" y="804" type="line"/>
      <point x="12" y="664" type="line"/>
      <point x="144" y="664" type="line"/>
    </contour>
  </outline>
</glyph>
<glyph name="y" format="1">
  <advance width="1064"/>
  <unicode hex="0079"/>
  <outline>
    <contour>
      <point x="552" y="804" type="move" name="top"/>
    </contour>
    <contour>
      <point x="213" y="-308" type="line"/>
      <point x="314" y="-308" type="line" smooth="yes"/>
      <point x="506" y="-308"/>
      <point x="541" y="-231"/>
      <point x="610" y="-59" type="curve" smooth="yes"/>
      <point x="925" y="711" type="line"/>
      <point x="1056" y="711" type="line"/>
      <point x="1056" y="804" type="line"/>
      <point x="649" y="804" type="line"/>
      <point x="649" y="711" type="line"/>
      <point x="796" y="711" type="line"/>
      <point x="564" y="134" type="line"/>
      <point x="309" y="711" type="line"/>
      <point x="434" y="711" type="line"/>
      <point x="434" y="804" type="line"/>
      <point x="24" y="804" type="line"/>
      <point x="24" y="711" type="line"/>
      <point x="177" y="711" type="line"/>
      <point x="479" y="53" type="line"/>
      <point x="536" y="53" type="line"/>
      <point x="489" y="-71" type="line" smooth="yes"/>
      <point x="447" y="-188"/>
      <point x="410" y="-201"/>
      <point x="302" y="-201" type="curve" smooth="yes"/>
      <point x="213" y="-201" type="line"/>
    </contour>
  </outline>
</glyph>
<glyph name="braceright" format="1">
  <advance width="657"/>
  <unicode hex="007D"/>
  <outline>
    <contour>
      <point x="108" y="-196" type="line"/>
      <point x="190" y="-196" type="line" smooth="yes"/>
      <point x="455" y="-196"/>
      <point x="457" y="-30"/>
      <point x="457" y="212" type="curve" smooth="yes"/>
      <point x="457" y="391"/>
      <point x="477" y="495"/>
      <point x="620" y="495" type="curve"/>
      <point x="620" y="638" type="line"/>
      <point x="481" y="638"/>
      <point x="457" y="742"/>
      <point x="457" y="916" type="curve" smooth="yes"/>
      <point x="457" y="1156"/>
      <point x="456" y="1328"/>
      <point x="191" y="1328" type="curve" smooth="yes"/>
      <point x="108" y="1328" type="line"/>
      <point x="108" y="1195" type="line"/>
      <point x="258" y="1195"/>
      <point x="290" y="1172"/>
      <point x="290" y="1023" type="curve" smooth="yes"/>
      <point x="290" y="728"/>
      <point x="305" y="635"/>
      <point x="437" y="566" type="curve"/>
      <point x="320" y="504"/>
      <point x="292" y="411"/>
      <point x="292" y="174" type="curve" smooth="yes"/>
      <point x="292" y="-38"/>
      <point x="291" y="-63"/>
      <point x="108" y="-63" type="curve"/>
    </contour>
  </outline>
</glyph>
<glyph name="asciitilde" format="1">
  <advance width="995"/>
  <unicode hex="007E"/>
  <outline>
    <contour>
      <point x="871" y="685" type="line"/>
      <point x="823" y="629"/>
      <point x="771" y="598"/>
      <point x="706" y="598" type="curve" smooth="yes"/>
      <point x="575" y="598"/>
      <point x="452" y="720"/>
      <point x="297" y="720" type="curve" smooth="yes"/>
      <point x="218" y="720"/>
      <point x="150" y="682"/>
      <point x="102" y="615" type="curve"/>
      <point x="119" y="523" type="line"/>
      <point x="172" y="585"/>
      <point x="223" y="615"/>
      <point x="289" y="615" type="curve" smooth="yes"/>
      <point x="425" y="615"/>
      <point x="545" y="488"/>
      <point x="702" y="488" type="curve" smooth="yes"/>
      <point x="781" y="488"/>
      <point x="844" y="529"/>
      <point x="891" y="589" type="curve"/>
    </contour>
  </outline>
</glyph>
<glyph name="sterling" format="1">
  <advance width="1048"/>
  <unicode hex="00A3"/>
  <outline>
    <contour>
      <point x="274" y="-20" type="curve" smooth="yes"/>
      <point x="373" y="-20"/>
      <point x="448" y="37"/>
      <point x="494" y="117" type="curve"/>
      <point x="576" y="39"/>
      <point x="665" y="-12"/>
      <point x="761" y="-12" type="curve" smooth="yes"/>
      <point x="940" y="-12"/>
      <point x="1004" y="97"/>
      <point x="1006" y="274" type="curve" smooth="yes"/>
      <point x="1006" y="281"/>
      <point x="1006" y="302"/>
      <point x="1005" y="308" type="curve"/>
      <point x="920" y="308" type="line"/>
      <point x="916" y="181"/>
      <point x="883" y="101"/>
      <point x="760" y="101" type="curve" smooth="yes"/>
      <point x="686" y="101"/>
      <point x="607" y="152"/>
      <point x="543" y="210" type="curve"/>
      <point x="586" y="326"/>
      <point x="587" y="429"/>
      <point x="531" y="560" type="curve"/>
      <point x="880" y="560" type="line"/>
      <point x="880" y="650" type="line"/>
      <point x="490" y="650" type="line"/>
      <point x="440" y="744"/>
      <point x="387" y="831"/>
      <point x="387" y="924" type="curve" smooth="yes"/>
      <point x="387" y="1058"/>
      <point x="484" y="1141"/>
      <point x="629" y="1141" type="curve" smooth="yes"/>
      <point x="782" y="1141"/>
      <point x="841" y="1048"/>
      <point x="841" y="924" type="curve"/>
      <point x="954" y="924" type="line"/>
      <point x="954" y="1120"/>
      <point x="839" y="1243"/>
      <point x="625" y="1243" type="curve" smooth="yes"/>
      <point x="415" y="1243"/>
      <point x="268" y="1119"/>
      <point x="268" y="918" type="curve" smooth="yes"/>
      <point x="268" y="826"/>
      <point x="315" y="730"/>
      <point x="355" y="650" type="curve"/>
      <point x="159" y="650" type="line"/>
      <point x="159" y="560" type="line"/>
      <point x="404" y="560" type="line"/>
      <point x="479" y="440"/>
      <point x="478" y="324"/>
      <point x="468" y="260" type="curve"/>
      <point x="419" y="311"/>
      <point x="343" y="352"/>
      <point x="272" y="352" type="curve" smooth="yes"/>
      <point x="136" y="352"/>
      <point x="54" y="264"/>
      <point x="54" y="158" type="curve" smooth="yes"/>
      <point x="54" y="59"/>
      <point x="130" y="-20"/>
    </contour>
    <contour>
      <point x="270" y="57" type="curve" smooth="yes"/>
      <point x="198" y="57"/>
      <point x="147" y="96"/>
      <point x="147" y="160" type="curve" smooth="yes"/>
      <point x="147" y="226"/>
      <point x="194" y="266"/>
      <point x="267" y="266" type="curve" smooth="yes"/>
      <point x="318" y="266"/>
      <point x="385" y="233"/>
      <point x="435" y="177" type="curve"/>
      <point x="410" y="99"/>
      <point x="334" y="57"/>
    </contour>
  </outline>
</glyph>
<glyph name="dieresis" format="1">
  <advance width="661"/>
  <unicode hex="00A8"/>
  <outline>
    <contour>
      <point x="329" y="804" type="move" name="_top"/>
    </contour>
    <contour>
      <point x="115" y="931" type="curve" smooth="yes"/>
      <point x="185" y="931"/>
      <point x="231" y="975"/>
      <point x="231" y="1042" type="curve" smooth="yes"/>
      <point x="231" y="1108"/>
      <point x="184" y="1152"/>
      <point x="115" y="1152" type="curve" smooth="yes"/>
      <point x="46" y="1152"/>
      <point x="0" y="1108"/>
      <point x="0" y="1042" type="curve" smooth="yes"/>
      <point x="0" y="975"/>
      <point x="46" y="931"/>
    </contour>
    <contour>
      <point x="545" y="931" type="curve" smooth="yes"/>
      <point x="615" y="931"/>
      <point x="661" y="975"/>
      <point x="661" y="1042" type="curve" smooth="yes"/>
      <point x="661" y="1108"/>
      <point x="614" y="1152"/>
      <point x="545" y="1152" type="curve" smooth="yes"/>
      <point x="476" y="1152"/>
      <point x="430" y="1108"/>
      <point x="430" y="1042" type="curve" smooth="yes"/>
      <point x="430" y="975"/>
      <point x="476" y="931"/>
    </contour>
  </outline>
</glyph>
<glyph name="guillemotleft" format="1">
  <advance width="954"/>
  <unicode hex="00AB"/>
  <outline>
    <contour>
      <point x="340" y="143" type="line"/>
      <point x="484" y="143" type="line"/>
      <point x="277" y="553" type="line"/>
      <point x="484" y="963" type="line"/>
      <point x="340" y="963" type="line"/>
      <point x="27" y="552" type="line"/>
    </contour>
    <contour>
      <point x="783" y="143" type="line"/>
      <point x="927" y="143" type="line"/>
      <point x="720" y="553" type="line"/>
      <point x="927" y="963" type="line"/>
      <point x="783" y="963" type="line"/>
      <point x="470" y="552" type="line"/>
    </contour>
  </outline>
</glyph>
<glyph name="logicalnot" format="1">
  <advance width="1122"/>
  <unicode hex="00AC"/>
  <outline>
    <contour>
      <point x="831" y="329" type="line"/>
      <point x="948" y="329" type="line"/>
      <point x="948" y="863" type="line"/>
      <point x="11" y="863" type="line"/>
      <point x="11" y="722" type="line"/>
      <point x="831" y="722" type="line"/>
    </contour>
  </outline>
</glyph>
<glyph name="registered" format="1">
  <advance width="1527"/>
  <unicode hex="00AE"/>
  <outline>
    <contour>
      <point x="460" y="267" type="line"/>
      <point x="721" y="267" type="line"/>
      <point x="721" y="323" type="line"/>
      <point x="632" y="323" type="line"/>
      <point x="632" y="587" type="line"/>
      <point x="763" y="587" type="line"/>
      <point x="938" y="267" type="line"/>
      <point x="1088" y="267" type="line"/>
      <point x="1088" y="324" type="line"/>
      <point x="993" y="324" type="line"/>
      <point x="840" y="595" type="line"/>
      <point x="949" y="609"/>
      <point x="1014" y="674"/>
      <point x="1014" y="767" type="curve" smooth="yes"/>
      <point x="1014" y="880"/>
      <point x="931" y="949"/>
      <point x="797" y="949" type="curve" smooth="yes"/>
      <point x="457" y="949" type="line"/>
      <point x="457" y="894" type="line"/>
      <point x="551" y="894" type="line"/>
      <point x="551" y="323" type="line"/>
      <point x="460" y="323" type="line"/>
    </contour>
    <contour>
      <point x="632" y="646" type="line"/>
      <point x="632" y="894" type="line"/>
      <point x="798" y="894" type="line" smooth="yes"/>
      <point x="882" y="894"/>
      <point x="934" y="846"/>
      <point x="934" y="766" type="curve" smooth="yes"/>
      <point x="934" y="691"/>
      <point x="881" y="646"/>
      <point x="794" y="646" type="curve" smooth="yes"/>
    </contour>
    <contour>
      <point x="750" y="64" type="curve" smooth="yes"/>
      <point x="419" y="64"/>
      <point x="233" y="305"/>
      <point x="233" y="588" type="curve" smooth="yes"/>
      <point x="233" y="868"/>
      <point x="421" y="1119"/>
      <point x="750" y="1119" type="curve" smooth="yes"/>
      <point x="1078" y="1119"/>
      <point x="1269" y="868"/>
      <point x="1269" y="588" type="curve" smooth="yes"/>
      <point x="1269" y="309"/>
      <point x="1078" y="64"/>
    </contour>
    <contour>
      <point x="750" y="-22" type="curve" smooth="yes"/>
      <point x="1147" y="-22"/>
      <point x="1377" y="260"/>
      <point x="1377" y="589" type="curve" smooth="yes"/>
      <point x="1377" y="918"/>
      <point x="1146" y="1204"/>
      <point x="750" y="1204" type="curve" smooth="yes"/>
      <point x="356" y="1204"/>
      <point x="125" y="918"/>
      <point x="125" y="589" type="curve" smooth="yes"/>
      <point x="125" y="261"/>
      <point x="354" y="-22"/>
    </contour>
  </outline>
</glyph>
<glyph name="macron" format="1">
  <advance width="390"/>
  <unicode hex="00AF"/>
  <outline>
    <contour>
      <point x="207" y="804" type="move" name="_top"/>
    </contour>
    <contour>
      <point x="192" y="1016" type="move" name="_mid"/>
    </contour>
    <contour>
      <point x="-33" y="953" type="line"/>
      <point x="422" y="953" type="line"/>
      <point x="422" y="1072" type="line"/>
      <point x="-33" y="1072" type="line"/>
    </contour>
  </outline>
</glyph>
<glyph name="degree" format="1">
  <advance width="653"/>
  <unicode hex="00B0"/>
  <outline>
    <contour>
      <point x="327" y="777" type="curve" smooth="yes"/>
      <point x="220" y="777"/>
      <point x="161" y="858"/>
      <point x="161" y="945" type="curve"/>
      <point x="161" y="1032"/>
      <point x="221" y="1113"/>
      <point x="327" y="1113" type="curve" smooth="yes"/>
      <point x="435" y="1113"/>
      <point x="493" y="1028"/>
      <point x="493" y="945" type="curve" smooth="yes"/>
      <point x="493" y="856"/>
      <point x="432" y="777"/>
    </contour>
    <contour>
      <point x="327" y="688" type="curve" smooth="yes"/>
      <point x="494" y="688"/>
      <point x="590" y="811"/>
      <point x="590" y="944" type="curve" smooth="yes"/>
      <point x="590" y="1076"/>
      <point x="493" y="1199"/>
      <point x="327" y="1199" type="curve" smooth="yes"/>
      <point x="161" y="1199"/>
      <point x="64" y="1076"/>
      <point x="64" y="944" type="curve" smooth="yes"/>
      <point x="64" y="811"/>
      <point x="160" y="688"/>
    </contour>
  </outline>
</glyph>
<glyph name="twosuperior" format="1">
  <advance width="941"/>
  <unicode hex="00B2"/>
  <outline>
    <contour>
      <point x="202" y="615" type="line"/>
      <point x="202" y="537" type="line"/>
      <point x="740" y="537" type="line"/>
      <point x="739" y="763" type="line"/>
      <point x="658" y="763" type="line"/>
      <point x="658" y="614" type="line"/>
      <point x="319" y="614" type="line"/>
      <point x="535" y="824" type="line" smooth="yes"/>
      <point x="632" y="919"/>
      <point x="726" y="1008"/>
      <point x="726" y="1125" type="curve" smooth="yes"/>
      <point x="726" y="1269"/>
      <point x="623" y="1354"/>
      <point x="461" y="1354" type="curve" smooth="yes"/>
      <point x="290" y="1354"/>
      <point x="195" y="1249"/>
      <point x="195" y="1110" type="curve" smooth="yes"/>
      <point x="195" y="1080"/>
      <point x="200" y="1049"/>
      <point x="209" y="1017" type="curve"/>
      <point x="295" y="1017" type="line"/>
      <point x="287" y="1046"/>
      <point x="284" y="1074"/>
      <point x="284" y="1099" type="curve" smooth="yes"/>
      <point x="284" y="1203"/>
      <point x="348" y="1273"/>
      <point x="461" y="1273" type="curve" smooth="yes"/>
      <point x="574" y="1273"/>
      <point x="628" y="1211"/>
      <point x="630" y="1125" type="curve" smooth="yes"/>
      <point x="631" y="1041"/>
      <point x="563" y="976"/>
      <point x="475" y="887" type="curve" smooth="yes"/>
    </contour>
  </outline>
</glyph>
<glyph name="uni00B2" format="1">
  <advance width="976"/>
  <unicode hex="00B2"/>
  <outline>
    <contour>
      <point x="208" y="647" type="line"/>
      <point x="208" y="535" type="line"/>
      <point x="764" y="535" type="line"/>
      <point x="763" y="798" type="line"/>
      <point x="646" y="798" type="line"/>
      <point x="646" y="646" type="line"/>
      <point x="376" y="646" type="line"/>
      <point x="537" y="808" type="line" smooth="yes"/>
      <point x="629" y="900"/>
      <point x="757" y="1002"/>
      <point x="757" y="1126" type="curve" smooth="yes"/>
      <point x="757" y="1272"/>
      <point x="660" y="1369"/>
      <point x="478" y="1369" type="curve" smooth="yes"/>
      <point x="308" y="1369"/>
      <point x="202" y="1271"/>
      <point x="202" y="1126" type="curve" smooth="yes"/>
      <point x="202" y="1091"/>
      <point x="208" y="1055"/>
      <point x="220" y="1018" type="curve"/>
      <point x="344" y="1018" type="line"/>
      <point x="335" y="1051"/>
      <point x="331" y="1081"/>
      <point x="331" y="1108" type="curve" smooth="yes"/>
      <point x="331" y="1205"/>
      <point x="390" y="1251"/>
      <point x="479" y="1251" type="curve" smooth="yes"/>
      <point x="583" y="1251"/>
      <point x="612" y="1189"/>
      <point x="615" y="1124" type="curve" smooth="yes"/>
      <point x="618" y="1056"/>
      <point x="526" y="976"/>
      <point x="449" y="896" type="curve" smooth="yes"/>
    </contour>
  </outline>
</glyph>
<glyph name="periodcentered" format="1">
  <advance width="574"/>
  <unicode hex="00B7"/>
  <outline>
    <contour>
      <point x="294" y="421" type="curve" smooth="yes"/>
      <point x="372" y="421"/>
      <point x="433" y="478"/>
      <point x="433" y="552" type="curve" smooth="yes"/>
      <point x="433" y="624"/>
      <point x="372" y="682"/>
      <point x="294" y="682" type="curve" smooth="yes"/>
      <point x="218" y="682"/>
      <point x="157" y="624"/>
      <point x="157" y="552" type="curve" smooth="yes"/>
      <point x="157" y="478"/>
      <point x="218" y="421"/>
    </contour>
  </outline>
</glyph>
<glyph name="onesuperior" format="1">
  <advance width="780"/>
  <unicode hex="00B9"/>
  <outline>
    <contour>
      <point x="196" y="538" type="line"/>
      <point x="574" y="538" type="line"/>
      <point x="574" y="609" type="line"/>
      <point x="436" y="609" type="line"/>
      <point x="436" y="1330" type="line"/>
      <point x="202" y="1294" type="line"/>
      <point x="207" y="1223" type="line"/>
      <point x="338" y="1242" type="line"/>
      <point x="338" y="609" type="line"/>
      <point x="196" y="609" type="line"/>
    </contour>
  </outline>
</glyph>
<glyph name="uni00B9" format="1">
  <advance width="976"/>
  <unicode hex="00B9"/>
  <outline>
    <contour>
      <point x="247" y="529" type="line"/>
      <point x="701" y="529" type="line"/>
      <point x="701" y="629" type="line"/>
      <point x="546" y="629" type="line"/>
      <point x="546" y="1347" type="line"/>
      <point x="255" y="1311" type="line"/>
      <point x="255" y="1212" type="line"/>
      <point x="406" y="1226" type="line"/>
      <point x="406" y="629" type="line"/>
      <point x="247" y="629" type="line"/>
    </contour>
  </outline>
</glyph>
<glyph name="ordmasculine" format="1">
  <advance width="942"/>
  <unicode hex="00BA"/>
  <outline>
    <contour>
      <point x="475" y="468" type="curve" smooth="yes"/>
      <point x="691" y="468"/>
      <point x="844" y="614"/>
      <point x="844" y="823" type="curve" smooth="yes"/>
      <point x="844" y="1029"/>
      <point x="692" y="1174"/>
      <point x="477" y="1174" type="curve" smooth="yes"/>
      <point x="262" y="1174"/>
      <point x="110" y="1029"/>
      <point x="110" y="823" type="curve" smooth="yes"/>
      <point x="110" y="614"/>
      <point x="261" y="468"/>
    </contour>
    <contour>
      <point x="476" y="598" type="curve" smooth="yes"/>
      <point x="362" y="598"/>
      <point x="281" y="690"/>
      <point x="281" y="822" type="curve" smooth="yes"/>
      <point x="281" y="952"/>
      <point x="362" y="1044"/>
      <point x="475" y="1044" type="curve" smooth="yes"/>
      <point x="590" y="1044"/>
      <point x="671" y="953"/>
      <point x="671" y="823" type="curve" smooth="yes"/>
      <point x="671" y="691"/>
      <point x="590" y="598"/>
    </contour>
  </outline>
</glyph>
<glyph name="guillemotright" format="1">
  <advance width="862"/>
  <unicode hex="00BB"/>
  <outline>
    <contour>
      <point x="83" y="216" type="line"/>
      <point x="177" y="216" type="line"/>
      <point x="468" y="611" type="line"/>
      <point x="177" y="1005" type="line"/>
      <point x="83" y="1005" type="line"/>
      <point x="293" y="612" type="line"/>
    </contour>
    <contour>
      <point x="433" y="216" type="line"/>
      <point x="527" y="216" type="line"/>
      <point x="819" y="611" type="line"/>
      <point x="527" y="1005" type="line"/>
      <point x="433" y="1005" type="line"/>
      <point x="644" y="612" type="line"/>
    </contour>
  </outline>
</glyph>
<glyph name="multiply" format="1">
  <advance width="996"/>
  <unicode hex="00D7"/>
  <outline>
    <contour>
      <point x="773" y="139" type="line"/>
      <point x="867" y="233" type="line"/>
      <point x="591" y="503" type="line"/>
      <point x="872" y="779" type="line"/>
      <point x="782" y="871" type="line"/>
      <point x="499" y="595" type="line"/>
      <point x="223" y="866" type="line"/>
      <point x="129" y="772" type="line"/>
      <point x="405" y="500" type="line"/>
      <point x="124" y="225" type="line"/>
      <point x="215" y="134" type="line"/>
      <point x="496" y="409" type="line"/>
    </contour>
  </outline>
</glyph>
<glyph name="Oslash" format="1">
  <advance width="1515"/>
  <unicode hex="00D8"/>
  <outline>
    <contour>
      <point x="286" y="-74" type="line"/>
      <point x="1258" y="1171" type="line"/>
      <point x="1192" y="1218" type="line"/>
      <point x="218" y="-26" type="line"/>
    </contour>
    <component base="O" xOffset="4" yOffset="-4"/>
  </outline>
</glyph>
<glyph name="Thorn" format="1">
  <advance width="1147"/>
  <unicode hex="00DE"/>
  <outline>
    <contour>
      <point x="483" y="330" type="line"/>
      <point x="694" y="330" type="line" smooth="yes"/>
      <point x="929" y="330"/>
      <point x="1062" y="437"/>
      <point x="1062" y="633" type="curve" smooth="yes"/>
      <point x="1062" y="809"/>
      <point x="927" y="913"/>
      <point x="688" y="913" type="curve" smooth="yes"/>
      <point x="327" y="913" type="line"/>
      <point x="327" y="821" type="line"/>
      <point x="688" y="821" type="line" smooth="yes"/>
      <point x="837" y="821"/>
      <point x="925" y="751"/>
      <point x="926" y="632" type="curve" smooth="yes"/>
      <point x="926" y="491"/>
      <point x="840" y="416"/>
      <point x="694" y="416" type="curve" smooth="yes"/>
      <point x="483" y="416" type="line"/>
    </contour>
    <component base="uc_main_stem" xOffset="-32"/>
  </outline>
</glyph>
<glyph name="ae" format="1">
  <advance width="1460"/>
  <unicode hex="00E6"/>
  <outline>
    <contour>
      <point x="731" y="804" type="move" name="top"/>
    </contour>
    <contour>
      <point x="358" y="-22" type="curve" smooth="yes"/>
      <point x="465" y="-22"/>
      <point x="568" y="3"/>
      <point x="712" y="94" type="curve"/>
      <point x="791" y="23"/>
      <point x="901" y="-19"/>
      <point x="1032" y="-19" type="curve" smooth="yes"/>
      <point x="1198" y="-19"/>
      <point x="1335" y="50"/>
      <point x="1394" y="129" type="curve"/>
      <point x="1321" y="245" type="line"/>
      <point x="1221" y="161"/>
      <point x="1131" y="132"/>
      <point x="1040" y="132" type="curve" smooth="yes"/>
      <point x="893" y="132"/>
      <point x="797" y="228"/>
      <point x="788" y="363" type="curve"/>
      <point x="1405" y="363" type="line"/>
      <point x="1405" y="634"/>
      <point x="1263" y="826"/>
      <point x="1017" y="826" type="curve" smooth="yes"/>
      <point x="892" y="826"/>
      <point x="765" y="777"/>
      <point x="709" y="693" type="curve"/>
      <point x="665" y="777"/>
      <point x="540" y="826"/>
      <point x="418" y="826" type="curve" smooth="yes"/>
      <point x="300" y="826"/>
      <point x="156" y="790"/>
      <point x="68" y="723" type="curve"/>
      <point x="128" y="601" type="line"/>
      <point x="216" y="655"/>
      <point x="336" y="679"/>
      <point x="409" y="679" type="curve" smooth="yes"/>
      <point x="514" y="679"/>
      <point x="583" y="627"/>
      <point x="583" y="522" type="curve" smooth="yes"/>
      <point x="583" y="453" type="line"/>
      <point x="517" y="466"/>
      <point x="453" y="474"/>
      <point x="392" y="474" type="curve" smooth="yes"/>
      <point x="206" y="474"/>
      <point x="51" y="404"/>
      <point x="51" y="217" type="curve" smooth="yes"/>
      <point x="51" y="22"/>
      <point x="259" y="-22"/>
    </contour>
    <contour>
      <point x="388" y="104" type="curve" smooth="yes"/>
      <point x="325" y="104"/>
      <point x="237" y="121"/>
      <point x="237" y="224" type="curve" smooth="yes"/>
      <point x="237" y="331"/>
      <point x="315" y="358"/>
      <point x="403" y="358" type="curve" smooth="yes"/>
      <point x="457" y="358"/>
      <point x="533" y="348"/>
      <point x="584" y="343" type="curve"/>
      <point x="591" y="291"/>
      <point x="606" y="242"/>
      <point x="629" y="199" type="curve"/>
      <point x="574" y="153"/>
      <point x="500" y="104"/>
    </contour>
    <contour>
      <point x="1207" y="481" type="curve"/>
      <point x="791" y="481" type="line"/>
      <point x="809" y="598"/>
      <point x="891" y="681"/>
      <point x="1016" y="681" type="curve" smooth="yes"/>
      <point x="1134" y="681"/>
      <point x="1196" y="598"/>
    </contour>
  </outline>
</glyph>
<glyph name="divide" format="1">
  <advance width="895"/>
  <unicode hex="00F7"/>
  <outline>
    <contour>
      <point x="364" y="156" type="line"/>
      <point x="531" y="156" type="line"/>
      <point x="531" y="324" type="line"/>
      <point x="364" y="324" type="line"/>
    </contour>
    <contour>
      <point x="26" y="495" type="line"/>
      <point x="869" y="495" type="line"/>
      <point x="869" y="613" type="line"/>
      <point x="26" y="613" type="line"/>
    </contour>
    <contour>
      <point x="364" y="780" type="line"/>
      <point x="531" y="780" type="line"/>
      <point x="531" y="948" type="line"/>
      <point x="364" y="948" type="line"/>
    </contour>
  </outline>
</glyph>
<glyph name="Hbar" format="1">
  <advance width="1428"/>
  <unicode hex="0126"/>
  <outline>
    <contour>
      <point x="129" y="812" type="line"/>
      <point x="1319" y="812" type="line"/>
      <point x="1319" y="887" type="line"/>
      <point x="129" y="887" type="line"/>
    </contour>
    <component base="H"/>
  </outline>
</glyph>
<glyph name="kgreenlandic" format="1">
  <advance width="1129"/>
  <unicode hex="0138"/>
  <outline>
    <contour>
      <point x="877" y="0" type="line"/>
      <point x="1099" y="0" type="line"/>
      <point x="1099" y="141" type="line"/>
      <point x="963" y="141" type="line"/>
      <point x="622" y="401" type="line"/>
      <point x="950" y="664" type="line"/>
      <point x="1087" y="664" type="line"/>
      <point x="1087" y="804" type="line"/>
      <point x="601" y="804" type="line"/>
      <point x="601" y="664" type="line"/>
      <point x="734" y="664" type="line"/>
      <point x="394" y="388" type="line"/>
    </contour>
    <contour>
      <point x="81" y="0" type="line"/>
      <point x="537" y="0" type="line"/>
      <point x="537" y="141" type="line"/>
      <point x="427" y="141" type="line"/>
      <point x="427" y="804" type="line"/>
      <point x="80" y="804" type="line"/>
      <point x="80" y="664" type="line"/>
      <point x="232" y="664" type="line"/>
      <point x="232" y="141" type="line"/>
      <point x="81" y="141" type="line"/>
    </contour>
  </outline>
</glyph>
<glyph name="oe" format="1">
  <advance width="1738"/>
  <unicode hex="0153"/>
  <outline>
    <contour>
      <point x="507" y="-22" type="curve" smooth="yes"/>
      <point x="676" y="-22"/>
      <point x="809" y="62"/>
      <point x="875" y="193" type="curve"/>
      <point x="944" y="57"/>
      <point x="1086" y="-22"/>
      <point x="1249" y="-22" type="curve" smooth="yes"/>
      <point x="1393" y="-22"/>
      <point x="1522" y="29"/>
      <point x="1608" y="127" type="curve"/>
      <point x="1545" y="199" type="line"/>
      <point x="1477" y="125"/>
      <point x="1360" y="74"/>
      <point x="1253" y="74" type="curve" smooth="yes"/>
      <point x="1080" y="74"/>
      <point x="949" y="186"/>
      <point x="940" y="373" type="curve"/>
      <point x="1625" y="373" type="line"/>
      <point x="1621" y="663"/>
      <point x="1463" y="826"/>
      <point x="1235" y="826" type="curve" smooth="yes"/>
      <point x="1086" y="826"/>
      <point x="946" y="751"/>
      <point x="877" y="610" type="curve"/>
      <point x="810" y="743"/>
      <point x="676" y="826"/>
      <point x="508" y="826" type="curve" smooth="yes"/>
      <point x="257" y="826"/>
      <point x="79" y="649"/>
      <point x="79" y="403" type="curve" smooth="yes"/>
      <point x="79" y="156"/>
      <point x="253" y="-22"/>
    </contour>
    <contour>
      <point x="508" y="76" type="curve" smooth="yes"/>
      <point x="327" y="76"/>
      <point x="207" y="211"/>
      <point x="207" y="403" type="curve" smooth="yes"/>
      <point x="207" y="592"/>
      <point x="326" y="725"/>
      <point x="507" y="725" type="curve" smooth="yes"/>
      <point x="689" y="725"/>
      <point x="810" y="592"/>
      <point x="810" y="403" type="curve" smooth="yes"/>
      <point x="810" y="211"/>
      <point x="689" y="76"/>
    </contour>
    <contour>
      <point x="941" y="451" type="line"/>
      <point x="956" y="621"/>
      <point x="1070" y="730"/>
      <point x="1235" y="730" type="curve" smooth="yes"/>
      <point x="1384" y="730"/>
      <point x="1486" y="631"/>
      <point x="1506" y="451" type="curve"/>
    </contour>
  </outline>
</glyph>
<glyph name="florin" format="1">
  <advance width="1142"/>
  <unicode hex="0192"/>
  <outline>
    <contour>
      <point x="517" y="916" type="curve" smooth="yes"/>
      <point x="495" y="783" type="line"/>
      <point x="334" y="783" type="line"/>
      <point x="322" y="669" type="line"/>
      <point x="483" y="669" type="line"/>
      <point x="406" y="37" type="line" smooth="yes"/>
      <point x="369" y="-272"/>
      <point x="236" y="-253"/>
      <point x="149" y="-222" type="curve"/>
      <point x="131" y="-325" type="line"/>
      <point x="316" y="-384"/>
      <point x="542" y="-335"/>
      <point x="588" y="36" type="curve" smooth="yes"/>
      <point x="668" y="669" type="line"/>
      <point x="877" y="669" type="line"/>
      <point x="890" y="783" type="line"/>
      <point x="685" y="783" type="line"/>
      <point x="702" y="925" type="line" smooth="yes"/>
      <point x="722" y="1093"/>
      <point x="756" y="1143"/>
      <point x="807" y="1143" type="curve" smooth="yes"/>
      <point x="855" y="1143"/>
      <point x="879" y="1089"/>
      <point x="868" y="987" type="curve"/>
      <point x="1001" y="987"/>
      <point x="1047" y="1045"/>
      <point x="1054" y="1107" type="curve" smooth="yes"/>
      <point x="1062" y="1181"/>
      <point x="995" y="1233"/>
      <point x="854" y="1233" type="curve" smooth="yes"/>
      <point x="604" y="1233"/>
      <point x="539" y="1053"/>
    </contour>
  </outline>
</glyph>
<glyph name="apostrophemod" format="1">
  <advance width="600"/>
  <unicode hex="02BC"/>
  <outline>
    <contour>
      <point x="108" y="804" type="move" name="_top"/>
    </contour>
    <contour>
      <point x="67" y="910" type="line"/>
      <point x="193" y="910"/>
      <point x="245" y="984"/>
      <point x="245" y="1097" type="curve"/>
      <point x="245" y="1264" type="line"/>
      <point x="72" y="1264" type="line"/>
      <point x="72" y="1099" type="line"/>
      <point x="171" y="1099" type="line"/>
      <point x="171" y="1007"/>
      <point x="138" y="980"/>
      <point x="67" y="967" type="curve"/>
    </contour>
  </outline>
</glyph>
<glyph name="dotaccent" format="1">
  <advance width="399"/>
  <unicode hex="02D9"/>
  <outline>
    <contour>
      <point x="203" y="804" type="move" name="_top"/>
    </contour>
    <contour>
      <point x="203" y="989" type="curve" smooth="yes"/>
      <point x="259" y="989"/>
      <point x="302" y="1029"/>
      <point x="302" y="1081" type="curve" smooth="yes"/>
      <point x="302" y="1132"/>
      <point x="259" y="1172"/>
      <point x="203" y="1172" type="curve"/>
      <point x="149" y="1172"/>
      <point x="107" y="1132"/>
      <point x="107" y="1081" type="curve" smooth="yes"/>
      <point x="107" y="1029"/>
      <point x="149" y="989"/>
    </contour>
  </outline>
</glyph>
<glyph name="ring" format="1">
  <advance width="499"/>
  <unicode hex="02DA"/>
  <outline>
    <contour>
      <point x="249" y="804" type="move" name="_top"/>
    </contour>
    <contour>
      <point x="250" y="1119" type="move" name="top"/>
    </contour>
    <contour>
      <point x="249" y="873" type="curve" smooth="yes"/>
      <point x="363" y="873"/>
      <point x="432" y="955"/>
      <point x="432" y="1045" type="curve" smooth="yes"/>
      <point x="432" y="1133"/>
      <point x="366" y="1211"/>
      <point x="249" y="1211" type="curve" smooth="yes"/>
      <point x="133" y="1211"/>
      <point x="67" y="1133"/>
      <point x="67" y="1045" type="curve" smooth="yes"/>
      <point x="67" y="955"/>
      <point x="135" y="873"/>
    </contour>
    <contour>
      <point x="249" y="952" type="curve" smooth="yes"/>
      <point x="188" y="952"/>
      <point x="154" y="995"/>
      <point x="154" y="1043" type="curve" smooth="yes"/>
      <point x="154" y="1091"/>
      <point x="188" y="1134"/>
      <point x="249" y="1134" type="curve" smooth="yes"/>
      <point x="310" y="1134"/>
      <point x="345" y="1091"/>
      <point x="345" y="1043" type="curve" smooth="yes"/>
      <point x="345" y="995"/>
      <point x="310" y="952"/>
    </contour>
  </outline>
</glyph>
<glyph name="tilde" format="1">
  <advance width="544"/>
  <unicode hex="02DC"/>
  <outline>
    <contour>
      <point x="279" y="797" type="move" name="_top"/>
    </contour>
    <contour>
      <point x="403" y="923" type="curve" smooth="yes"/>
      <point x="492" y="922"/>
      <point x="526" y="995"/>
      <point x="535" y="1092" type="curve"/>
      <point x="481" y="1092" type="line"/>
      <point x="468" y="1034"/>
      <point x="447" y="1019"/>
      <point x="409" y="1019" type="curve" smooth="yes"/>
      <point x="347" y="1019"/>
      <point x="235" y="1097"/>
      <point x="158" y="1097" type="curve" smooth="yes"/>
      <point x="81" y="1097"/>
      <point x="31" y="1043"/>
      <point x="20" y="928" type="curve"/>
      <point x="76" y="928" type="line"/>
      <point x="87" y="982"/>
      <point x="105" y="1000"/>
      <point x="140" y="1000" type="curve" smooth="yes"/>
      <point x="208" y="1000"/>
      <point x="311" y="923"/>
    </contour>
  </outline>
</glyph>
<glyph name="hungarumlaut" format="1">
  <advance width="757"/>
  <unicode hex="02DD"/>
  <outline>
    <contour>
      <point x="289" y="804" type="move" name="_top"/>
    </contour>
    <contour>
      <point x="533" y="1290" type="line"/>
      <point x="414" y="969" type="line"/>
      <point x="543" y="969" type="line"/>
      <point x="760" y="1290" type="line"/>
    </contour>
    <contour>
      <point x="213" y="1290" type="line"/>
      <point x="94" y="969" type="line"/>
      <point x="223" y="969" type="line"/>
      <point x="440" y="1290" type="line"/>
    </contour>
  </outline>
</glyph>
<glyph name="uni0307" format="1">
  <advance width="535"/>
  <unicode hex="0307"/>
  <outline>
    <contour>
      <point x="270" y="805" type="move" name="_top"/>
    </contour>
    <contour>
      <point x="268" y="927" type="curve" smooth="yes"/>
      <point x="340" y="927"/>
      <point x="384" y="980"/>
      <point x="383" y="1038" type="curve" smooth="yes"/>
      <point x="383" y="1108"/>
      <point x="330" y="1148"/>
      <point x="268" y="1148" type="curve" smooth="yes"/>
      <point x="206" y="1148"/>
      <point x="152" y="1101"/>
      <point x="153" y="1038" type="curve" smooth="yes"/>
      <point x="153" y="977"/>
      <point x="207" y="927"/>
    </contour>
  </outline>
</glyph>
<glyph name="uni0326" format="1">
  <advance width="600"/>
  <unicode hex="0326"/>
  <outline>
    <contour>
      <point x="319" y="0" type="move" name="_bot"/>
    </contour>
    <contour>
      <point x="202" y="-528" type="line"/>
      <point x="361" y="-528"/>
      <point x="447" y="-453"/>
      <point x="446" y="-314" type="curve" smooth="yes"/>
      <point x="446" y="-95" type="line"/>
      <point x="202" y="-95" type="line"/>
      <point x="202" y="-314" type="line"/>
      <point x="340" y="-314" type="line"/>
      <point x="340" y="-391"/>
      <point x="289" y="-423"/>
      <point x="202" y="-441" type="curve"/>
    </contour>
  </outline>
</glyph>
<glyph name="uni0358" format="1">
  <advance width="334"/>
  <unicode hex="0358"/>
  <outline>
    <contour>
      <point x="158" y="804" type="move" name="_top"/>
    </contour>
    <contour>
      <point x="166" y="966" type="curve" smooth="yes"/>
      <point x="244" y="966"/>
      <point x="305" y="1023"/>
      <point x="305" y="1097" type="curve" smooth="yes"/>
      <point x="305" y="1169"/>
      <point x="244" y="1227"/>
      <point x="166" y="1227" type="curve" smooth="yes"/>
      <point x="90" y="1227"/>
      <point x="29" y="1169"/>
      <point x="29" y="1097" type="curve" smooth="yes"/>
      <point x="29" y="1023"/>
      <point x="90" y="966"/>
    </contour>
  </outline>
</glyph>
<glyph name="Sigma" format="1">
  <advance width="912"/>
  <unicode hex="03A3"/>
  <outline>
    <contour>
      <point x="92" y="0" type="line"/>
      <point x="869" y="0" type="line"/>
      <point x="869" y="105" type="line"/>
      <point x="274" y="105" type="line"/>
      <point x="691" y="569" type="line"/>
      <point x="289" y="1051" type="line"/>
      <point x="835" y="1051" type="line"/>
      <point x="835" y="1152" type="line"/>
      <point x="109" y="1152" type="line"/>
      <point x="109" y="1085" type="line"/>
      <point x="519" y="569" type="line"/>
      <point x="92" y="70" type="line"/>
    </contour>
  </outline>
</glyph>
<glyph name="pi" format="1">
  <advance width="1187"/>
  <unicode hex="03C0"/>
  <outline>
    <contour>
      <point x="897" y="-18" type="curve" smooth="yes"/>
      <point x="955" y="-18"/>
      <point x="1016" y="-1"/>
      <point x="1065" y="30" type="curve"/>
      <point x="1065" y="128" type="line"/>
      <point x="1029" y="118"/>
      <point x="993" y="111"/>
      <point x="962" y="111" type="curve" smooth="yes"/>
      <point x="896" y="111"/>
      <point x="848" y="141"/>
      <point x="848" y="226" type="curve" smooth="yes"/>
      <point x="848" y="308"/>
      <point x="853" y="449"/>
      <point x="866" y="600" type="curve"/>
      <point x="1076" y="600" type="line"/>
      <point x="1076" y="804" type="line"/>
      <point x="386" y="804" type="line" smooth="yes"/>
      <point x="205" y="804"/>
      <point x="129" y="665"/>
      <point x="129" y="500" type="curve"/>
      <point x="222" y="500" type="line"/>
      <point x="231" y="558"/>
      <point x="261" y="600"/>
      <point x="322" y="600" type="curve" smooth="yes"/>
      <point x="395" y="600" type="line"/>
      <point x="347" y="293" type="line" smooth="yes"/>
      <point x="321" y="128"/>
      <point x="225" y="82"/>
      <point x="158" y="82" type="curve"/>
      <point x="158" y="0" type="line"/>
      <point x="422" y="0"/>
      <point x="504" y="77"/>
      <point x="513" y="244" type="curve" smooth="yes"/>
      <point x="533" y="600" type="line"/>
      <point x="757" y="600" type="line"/>
      <point x="713" y="450"/>
      <point x="672" y="307"/>
      <point x="672" y="195" type="curve" smooth="yes"/>
      <point x="672" y="67"/>
      <point x="727" y="-18"/>
    </contour>
  </outline>
</glyph>
<glyph name="uni2015" format="1">
  <advance width="1273"/>
  <unicode hex="2015"/>
  <outline>
    <contour>
      <point x="0" y="452" type="line"/>
      <point x="1273" y="452" type="line"/>
      <point x="1273" y="576" type="line"/>
      <point x="0" y="576" type="line"/>
    </contour>
  </outline>
</glyph>
<glyph name="quoteleft" format="1">
  <advance width="511"/>
  <unicode hex="2018"/>
  <outline>
    <contour>
      <point x="135" y="787" type="line"/>
      <point x="338" y="787" type="line"/>
      <point x="338" y="1003" type="line"/>
      <point x="245" y="1003" type="line"/>
      <point x="246" y="1092"/>
      <point x="272" y="1122"/>
      <point x="342" y="1137" type="curve"/>
      <point x="342" y="1233" type="line"/>
      <point x="188" y="1232"/>
      <point x="135" y="1148"/>
      <point x="135" y="1000" type="curve" smooth="yes"/>
    </contour>
  </outline>
</glyph>
<glyph name="quoteright" format="1">
  <advance width="511"/>
  <unicode hex="2019"/>
  <outline>
    <contour>
      <point x="175" y="768" type="line"/>
      <point x="329" y="770"/>
      <point x="381" y="855"/>
      <point x="381" y="1003" type="curve" smooth="yes"/>
      <point x="381" y="1215" type="line"/>
      <point x="178" y="1215" type="line"/>
      <point x="178" y="1000" type="line"/>
      <point x="273" y="1000" type="line"/>
      <point x="270" y="910"/>
      <point x="246" y="879"/>
      <point x="175" y="865" type="curve"/>
    </contour>
  </outline>
</glyph>
<glyph name="quotedblright" format="1">
  <advance width="836"/>
  <unicode hex="201D"/>
  <outline>
    <contour>
      <point x="175" y="768" type="line"/>
      <point x="329" y="770"/>
      <point x="381" y="855"/>
      <point x="381" y="1003" type="curve" smooth="yes"/>
      <point x="381" y="1215" type="line"/>
      <point x="178" y="1215" type="line"/>
      <point x="178" y="1000" type="line"/>
      <point x="273" y="1000" type="line"/>
      <point x="270" y="910"/>
      <point x="246" y="879"/>
      <point x="175" y="865" type="curve"/>
    </contour>
    <contour>
      <point x="474" y="768" type="line"/>
      <point x="628" y="770"/>
      <point x="680" y="855"/>
      <point x="680" y="1003" type="curve" smooth="yes"/>
      <point x="680" y="1215" type="line"/>
      <point x="477" y="1215" type="line"/>
      <point x="477" y="1000" type="line"/>
      <point x="572" y="1000" type="line"/>
      <point x="569" y="910"/>
      <point x="545" y="879"/>
      <point x="474" y="865" type="curve"/>
    </contour>
  </outline>
</glyph>
<glyph name="quotedblbase" format="1">
  <advance width="790"/>
  <unicode hex="201E"/>
  <outline>
    <contour>
      <point x="181" y="-206" type="line"/>
      <point x="302" y="-204"/>
      <point x="341" y="-124"/>
      <point x="341" y="-9" type="curve" smooth="yes"/>
      <point x="341" y="148" type="line"/>
      <point x="188" y="148" type="line"/>
      <point x="188" y="-9" type="line"/>
      <point x="260" y="-9" type="line"/>
      <point x="258" y="-94"/>
      <point x="247" y="-122"/>
      <point x="181" y="-140" type="curve"/>
    </contour>
    <contour>
      <point x="467" y="-206" type="line"/>
      <point x="588" y="-204"/>
      <point x="627" y="-124"/>
      <point x="627" y="-9" type="curve" smooth="yes"/>
      <point x="627" y="148" type="line"/>
      <point x="474" y="148" type="line"/>
      <point x="474" y="-9" type="line"/>
      <point x="545" y="-9" type="line"/>
      <point x="544" y="-94"/>
      <point x="533" y="-122"/>
      <point x="467" y="-140" type="curve"/>
    </contour>
  </outline>
</glyph>
<glyph name="daggerdbl" format="1">
  <advance width="784"/>
  <unicode hex="2021"/>
  <outline>
    <contour>
      <point x="287" y="-227" type="line"/>
      <point x="500" y="-227" type="line"/>
      <point x="436" y="37" type="line"/>
      <point x="734" y="-6" type="line"/>
      <point x="734" y="189" type="line"/>
      <point x="456" y="141" type="line"/>
      <point x="443" y="506" type="line" smooth="yes"/>
      <point x="456" y="865" type="line"/>
      <point x="734" y="818" type="line"/>
      <point x="734" y="1012" type="line"/>
      <point x="436" y="969" type="line"/>
      <point x="500" y="1233" type="line"/>
      <point x="287" y="1233" type="line"/>
      <point x="348" y="969" type="line"/>
      <point x="50" y="1012" type="line"/>
      <point x="50" y="818" type="line"/>
      <point x="328" y="865" type="line"/>
      <point x="340" y="508" type="line" smooth="yes"/>
      <point x="328" y="141" type="line"/>
      <point x="50" y="189" type="line"/>
      <point x="50" y="-6" type="line"/>
      <point x="348" y="37" type="line"/>
    </contour>
  </outline>
</glyph>
<glyph name="perthousand" format="1">
  <advance width="2386"/>
  <unicode hex="2030"/>
  <outline>
    <contour>
      <point x="1994" y="-22" type="curve" smooth="yes"/>
      <point x="2167" y="-22"/>
      <point x="2293" y="100"/>
      <point x="2293" y="266" type="curve" smooth="yes"/>
      <point x="2293" y="430"/>
      <point x="2167" y="550"/>
      <point x="1994" y="550" type="curve" smooth="yes"/>
      <point x="1823" y="550"/>
      <point x="1697" y="430"/>
      <point x="1697" y="266" type="curve" smooth="yes"/>
      <point x="1697" y="100"/>
      <point x="1823" y="-22"/>
    </contour>
    <contour>
      <point x="1994" y="58" type="curve" smooth="yes"/>
      <point x="1877" y="58"/>
      <point x="1791" y="146"/>
      <point x="1791" y="266" type="curve" smooth="yes"/>
      <point x="1791" y="385"/>
      <point x="1877" y="471"/>
      <point x="1994" y="472" type="curve" smooth="yes"/>
      <point x="2113" y="471"/>
      <point x="2199" y="385"/>
      <point x="2199" y="266" type="curve" smooth="yes"/>
      <point x="2199" y="146"/>
      <point x="2113" y="58"/>
    </contour>
    <component base="percent"/>
  </outline>
</glyph>
<glyph name="uni2074" format="1">
  <advance width="973"/>
  <unicode hex="2074"/>
  <outline>
    <contour>
      <point x="396" y="529" type="line"/>
      <point x="731" y="529" type="line"/>
      <point x="731" y="629" type="line"/>
      <point x="635" y="629" type="line"/>
      <point x="635" y="766" type="line"/>
      <point x="760" y="766" type="line"/>
      <point x="760" y="865" type="line"/>
      <point x="635" y="865" type="line"/>
      <point x="635" y="1347" type="line"/>
      <point x="509" y="1347" type="line"/>
      <point x="158" y="883" type="line"/>
      <point x="172" y="766" type="line"/>
      <point x="506" y="766" type="line"/>
      <point x="506" y="629" type="line"/>
      <point x="396" y="629" type="line"/>
    </contour>
    <contour>
      <point x="285" y="865" type="line"/>
      <point x="506" y="1178" type="line"/>
      <point x="506" y="865" type="line"/>
    </contour>
  </outline>
</glyph>
<glyph name="Euro" format="1">
  <advance width="1370"/>
  <unicode hex="20AC"/>
  <outline>
    <contour>
      <point x="-25" y="417" type="line"/>
      <point x="602" y="417" type="line"/>
      <point x="636" y="499" type="line"/>
      <point x="9" y="499" type="line"/>
    </contour>
    <contour>
      <point x="-25" y="635" type="line"/>
      <point x="602" y="635" type="line"/>
      <point x="636" y="717" type="line"/>
      <point x="9" y="717" type="line"/>
    </contour>
    <component base="C"/>
  </outline>
</glyph>
<glyph name="uni2113" format="1">
  <advance width="689"/>
  <unicode hex="2113"/>
  <outline>
    <contour>
      <point x="573" y="-8" type="curve"/>
      <point x="595" y="133" type="line"/>
      <point x="417" y="133"/>
      <point x="388" y="168"/>
      <point x="412" y="331" type="curve" smooth="yes"/>
      <point x="550" y="1215" type="line"/>
      <point x="203" y="1215" type="line"/>
      <point x="181" y="1075" type="line"/>
      <point x="330" y="1075" type="line"/>
      <point x="204" y="270" type="line" smooth="yes"/>
      <point x="168" y="43"/>
      <point x="328" y="-10"/>
    </contour>
  </outline>
</glyph>
<glyph name="uni2126" format="1">
  <advance width="1426"/>
  <unicode hex="2126"/>
  <outline>
    <contour>
      <point x="141" y="0" type="line"/>
      <point x="598" y="0" type="line"/>
      <point x="598" y="92" type="line"/>
      <point x="379" y="204"/>
      <point x="276" y="423"/>
      <point x="276" y="623" type="curve" smooth="yes"/>
      <point x="276" y="856"/>
      <point x="423" y="1066"/>
      <point x="713" y="1066" type="curve" smooth="yes"/>
      <point x="1002" y="1066"/>
      <point x="1149" y="855"/>
      <point x="1149" y="622" type="curve" smooth="yes"/>
      <point x="1149" y="423"/>
      <point x="1047" y="204"/>
      <point x="828" y="92" type="curve"/>
      <point x="828" y="0" type="line"/>
      <point x="1285" y="0" type="line"/>
      <point x="1285" y="94" type="line"/>
      <point x="983" y="94" type="line"/>
      <point x="1195" y="221"/>
      <point x="1293" y="428"/>
      <point x="1293" y="624" type="curve" smooth="yes"/>
      <point x="1293" y="907"/>
      <point x="1085" y="1174"/>
      <point x="713" y="1174" type="curve" smooth="yes"/>
      <point x="343" y="1174"/>
      <point x="133" y="906"/>
      <point x="133" y="623" type="curve" smooth="yes"/>
      <point x="133" y="427"/>
      <point x="232" y="221"/>
      <point x="443" y="94" type="curve"/>
      <point x="141" y="94" type="line"/>
    </contour>
  </outline>
</glyph>
<glyph name="estimated" format="1">
  <advance width="1119"/>
  <unicode hex="212E"/>
  <outline>
    <contour>
      <point x="594" y="-20" type="curve" smooth="yes"/>
      <point x="728" y="-19"/>
      <point x="867" y="27"/>
      <point x="976" y="117" type="curve"/>
      <point x="951" y="148" type="line"/>
      <point x="835" y="70"/>
      <point x="727" y="36"/>
      <point x="635" y="40" type="curve" smooth="yes"/>
      <point x="470" y="48"/>
      <point x="358" y="179"/>
      <point x="341" y="401" type="curve"/>
      <point x="967" y="401" type="line"/>
      <point x="967" y="673"/>
      <point x="862" y="826"/>
      <point x="580" y="826" type="curve" smooth="yes"/>
      <point x="312" y="826"/>
      <point x="134" y="680"/>
      <point x="134" y="420" type="curve" smooth="yes"/>
      <point x="134" y="122"/>
      <point x="355" y="-21"/>
    </contour>
    <contour>
      <point x="344" y="461" type="line"/>
      <point x="348" y="683"/>
      <point x="481" y="799"/>
      <point x="611" y="798" type="curve" smooth="yes"/>
      <point x="735" y="797"/>
      <point x="856" y="688"/>
      <point x="856" y="461" type="curve"/>
    </contour>
  </outline>
</glyph>
<glyph name="minus" format="1">
  <advance width="930"/>
  <unicode hex="2212"/>
  <outline>
    <contour>
      <point x="95" y="431" type="line"/>
      <point x="835" y="431" type="line"/>
      <point x="835" y="572" type="line"/>
      <point x="95" y="572" type="line"/>
    </contour>
  </outline>
</glyph>
<glyph name="radical" format="1">
  <advance width="1172"/>
  <unicode hex="221A"/>
  <outline>
    <contour>
      <point x="438" y="-14" type="line"/>
      <point x="598" y="-14" type="line"/>
      <point x="1060" y="1363" type="line"/>
      <point x="935" y="1363" type="line"/>
      <point x="539" y="194" type="line"/>
      <point x="326" y="691" type="line"/>
      <point x="4" y="691" type="line"/>
      <point x="4" y="568" type="line"/>
      <point x="170" y="568" type="line"/>
    </contour>
  </outline>
</glyph>
<glyph name="caron.alt" format="1">
  <advance width="600"/>
  <outline>
    <contour>
      <point x="147" y="804" type="move" name="_caron.alt"/>
    </contour>
    <contour>
      <point x="85" y="741" type="line"/>
      <point x="244" y="741"/>
      <point x="330" y="816"/>
      <point x="329" y="955" type="curve" smooth="yes"/>
      <point x="329" y="1174" type="line"/>
      <point x="85" y="1174" type="line"/>
      <point x="85" y="955" type="line"/>
      <point x="223" y="955" type="line"/>
      <point x="223" y="878"/>
      <point x="172" y="846"/>
      <point x="85" y="828" type="curve"/>
    </contour>
  </outline>
</glyph>
<glyph name="lc_ascender_stem_2" format="1">
  <advance width="942"/>
  <outline>
    <contour>
      <point x="252" y="0" type="line"/>
      <point x="512" y="0" type="line"/>
      <point x="512" y="93" type="line"/>
      <point x="382" y="93" type="line"/>
      <point x="382" y="1174" type="line"/>
      <point x="110" y="1174" type="line"/>
      <point x="110" y="1081" type="line"/>
      <point x="252" y="1081" type="line"/>
    </contour>
  </outline>
</glyph>
<glyph name="lc_descender_stem" format="1">
  <advance width="1200"/>
  <outline>
    <contour>
      <point x="83" y="-318" type="line"/>
      <point x="509" y="-318" type="line"/>
      <point x="509" y="-225" type="line"/>
      <point x="356" y="-225" type="line"/>
      <point x="356" y="631" type="line"/>
      <point x="349" y="804" type="line"/>
      <point x="90" y="804" type="line"/>
      <point x="90" y="711" type="line"/>
      <point x="227" y="711" type="line"/>
      <point x="227" y="-225" type="line"/>
      <point x="83" y="-225" type="line"/>
    </contour>
  </outline>
</glyph>
